<svg width="256" height="256" xmlns="http://www.w3.org/2000/svg" xmlns:svg="http://www.w3.org/2000/svg" preserveAspectRatio="xMidYMid">
 <g>
  <title>POSX</title>
  <path d="m173.2,82.8c25,25 25,65.5 0,90.5c-12.5,12.5 -12.5,32.8 0,45.2c12.5,12.5 32.8,12.5 45.3,0c50,-50 50,-131 0,-181l-45.3,45.3z" fill="#00bf00" id="svg_2"/>
  <path d="m218.4,37.5c-50,-50 -130.9,-50 -180.9,0c-50,50 -50,131 0,181l45.3,-45.2c-25,-25 -25,-65.5 0,-90.5c25,-25 65.5,-25 90.5,0c12.5,12.5 32.8,12.5 45.3,0c12.3,-12.5 12.3,-32.8 -0.2,-45.3z" fill="#246fdb" id="svg_3"/>
  <path d="m218.4,218.5l-45.3,-45.2c-25,25 -65.5,25 -90.5,0l-45.3,45.2c50.2,50 131.1,50 181.1,0z" fill="#FBBC04" id="svg_4"/>
  <path d="m173.2,173.3c12.5,-12.5 32.7,-12.5 45.2,0c12.5,12.5 12.5,32.8 0,45.3c-12.5,12.5 -32.7,12.5 -45.2,0c-12.5,-12.5 -12.5,-32.8 0,-45.3z" fill="#00bf00" id="svg_5"/>
  <path d="m37.5,173.3c12.5,-12.5 32.7,-12.5 45.2,0c12.5,12.5 12.5,32.8 0,45.3c-12.5,12.5 -32.7,12.5 -45.2,0c-12.5,-12.5 -12.5,-32.8 0,-45.3z" fill="#246fdb" id="svg_6"/>
  <path d="m105.40001,131.35c12.5,-12.5 32.7,-12.5 45.2,0c12.5,12.5 12.5,32.8 0,45.3c-12.5,12.5 -32.7,12.5 -45.2,0c-12.5,-12.5 -12.5,-32.8 0,-45.3z" fill="#ff5656" id="svg_8"/>
 </g>
</svg>